# xmcd
#
# Track frame offsets:
#	150
#	19917
#	41723
#	63343
#	77560
#	97604
#	115036
#	133290
#	152577
#	169901
#	190835
#	207135
#	218775
#	232960
#	254267
#	265783
#
# Disc length: 3800 seconds
#
# Revision: 1
# Processed by: cddbd v1.5.2PL0 Copyright (c) Steve Scherf et al.
# Submitted via: audiograbber 1.82.02
#
DISCID=d00ed610
DTITLE=Various Artist - Rural Aid Appeal 2007 Vol 40
DYEAR=2007
DGENRE=Country
TTITLE0=Thirsty Merg - Hope
TTITLE1=Augie  March - One Crowded Hour
TTITLE2=Flood - Ofetta's Rainbow
TTITLE3=Camille Te Nahu - Meorl Women
TTITLE4=Marcia Hines - Last Dance
TTITLE5=Lou Bradley - Love Someone
TTITLE6=Eric Bogle - Tamborine Mountain
TTITLE7=Madviolet - I'm Your Lady
TTITLE8=Andrew Morris - Heart Bounded By Sorrow
TTITLE9=Derrin Nauendorf - Queensland
TTITLE10=Kate Miller-Heidke - Delay
TTITLE11=Jame Robbie Reyne - Kissing The Dust
TTITLE12=Kaya - Somebodys Lyeing
TTITLE13=Kransky Sisters - M J Melody
TTITLE14=Bobkats - Red Hot Rocket
TTITLE15=Fiddlers Feast - Tinkers Way
EXTD=
EXTT0=
EXTT1=
EXTT2=
EXTT3=
EXTT4=
EXTT5=
EXTT6=
EXTT7=
EXTT8=
EXTT9=
EXTT10=
EXTT11=
EXTT12=
EXTT13=
EXTT14=
EXTT15=
PLAYORDER=
